<svg width="21" height="22" viewBox="0 0 21 22" fill="none" xmlns="http://www.w3.org/2000/svg">
<path d="M18.75 0.500122H2.25C0.984375 0.500122 0 1.53137 0 2.75012V19.2501C0 20.5157 0.984375 21.5001 2.25 21.5001H8.67188V14.3751H5.71875V11.0001H8.67188V8.46887C8.67188 5.56262 10.4062 3.922 13.0312 3.922C14.3438 3.922 15.6562 4.15637 15.6562 4.15637V7.01575H14.2031C12.75 7.01575 12.2812 7.90637 12.2812 8.84387V11.0001H15.5156L15 14.3751H12.2812V21.5001H18.75C19.9688 21.5001 21 20.5157 21 19.2501V2.75012C21 1.53137 19.9688 0.500122 18.75 0.500122Z" fill="black"/>
</svg>
