<svg width="21" height="22" viewBox="0 0 21 22" fill="none" xmlns="http://www.w3.org/2000/svg">
<path d="M18.75 0.5H2.25C0.984375 0.5 0 1.53125 0 2.75V19.25C0 20.5156 0.984375 21.5 2.25 21.5H18.75C19.9688 21.5 21 20.5156 21 19.25V2.75C21 1.53125 19.9688 0.5 18.75 0.5ZM12.9844 18.5C12.5625 18.5938 12.4219 18.3125 12.4219 18.125C12.4219 17.8906 12.4688 16.5781 12.4688 15.5469C12.4688 14.7969 12.1875 14.3281 11.9062 14.0938C13.6406 13.9062 15.4688 13.6719 15.4688 10.6719C15.4688 9.82812 15.1875 9.40625 14.6719 8.84375C14.7656 8.65625 15.0469 7.8125 14.5781 6.73438C13.9688 6.54688 12.4688 7.57812 12.4688 7.57812C11.8594 7.39062 11.1562 7.29688 10.5 7.29688C9.84375 7.29688 9.1875 7.39062 8.57812 7.57812C8.57812 7.57812 7.07812 6.54688 6.42188 6.73438C6 7.8125 6.23438 8.65625 6.32812 8.84375C5.85938 9.40625 5.625 9.82812 5.625 10.6719C5.625 13.6719 7.35938 13.9062 9.09375 14.0938C8.85938 14.2812 8.67188 14.6562 8.57812 15.125C8.15625 15.3594 6.98438 15.6875 6.32812 14.5156C5.90625 13.7656 5.10938 13.6719 5.10938 13.6719C4.35938 13.6719 5.0625 14.1875 5.0625 14.1875C5.57812 14.4219 5.95312 15.3125 5.95312 15.3125C6.375 16.7188 8.57812 16.25 8.57812 16.25C8.57812 16.8594 8.57812 17.9375 8.57812 18.125C8.57812 18.3125 8.4375 18.5938 8.0625 18.5C4.96875 17.4688 2.76562 14.5156 2.76562 11.0938C2.76562 6.78125 6.09375 3.5 10.3594 3.5C14.6719 3.5 18.1875 6.78125 18.1875 11.0938C18.1875 14.5156 16.0781 17.4688 12.9844 18.5ZM8.39062 15.6406C8.48438 15.6406 8.53125 15.5469 8.53125 15.5C8.53125 15.4531 8.4375 15.4062 8.34375 15.4062C8.25 15.4531 8.20312 15.5 8.20312 15.5469C8.20312 15.6406 8.29688 15.6406 8.39062 15.6406ZM7.92188 15.5938C7.92188 15.6406 7.875 15.7344 7.78125 15.7344C7.6875 15.7344 7.59375 15.6875 7.59375 15.5938C7.59375 15.5469 7.6875 15.5 7.78125 15.5C7.82812 15.5 7.92188 15.5469 7.92188 15.5938ZM7.3125 15.5469C7.3125 15.5 7.26562 15.4062 7.17188 15.4062C7.07812 15.3594 6.98438 15.4062 6.98438 15.4531C6.9375 15.5 7.03125 15.5938 7.07812 15.5938C7.17188 15.6406 7.26562 15.5938 7.3125 15.5469ZM6.70312 15.3125C6.65625 15.3594 6.5625 15.3594 6.51562 15.2656C6.42188 15.2188 6.42188 15.125 6.46875 15.0781C6.51562 15.0312 6.60938 15.0312 6.65625 15.125C6.75 15.1719 6.75 15.2656 6.70312 15.3125ZM6.28125 14.8906C6.23438 14.8906 6.1875 14.8906 6.09375 14.7969C6.04688 14.75 6.04688 14.6562 6.09375 14.6094C6.1875 14.5625 6.23438 14.6094 6.28125 14.6562C6.32812 14.75 6.32812 14.8438 6.28125 14.8906ZM6 14.4219C5.95312 14.4688 5.85938 14.4219 5.8125 14.375C5.76562 14.3281 5.76562 14.2344 5.8125 14.2344C5.85938 14.1875 5.90625 14.1875 5.95312 14.2344C6 14.3281 6.04688 14.375 6 14.4219ZM5.67188 14.0469C5.67188 14.0938 5.57812 14.1406 5.53125 14.0938C5.48438 14.0469 5.4375 14 5.48438 13.9531C5.48438 13.9531 5.53125 13.9062 5.57812 13.9531C5.67188 14 5.67188 14.0469 5.67188 14.0469Z" fill="black"/>
</svg>
