<svg width="21" height="22" viewBox="0 0 21 22" fill="none" xmlns="http://www.w3.org/2000/svg">
<path d="M10.5 8.51575C9.09375 8.51575 7.96875 9.64075 7.96875 11.0001C7.96875 12.4064 9.09375 13.5314 10.5 13.5314C11.8594 13.5314 12.9844 12.4064 12.9844 11.0001C12.9844 9.64075 11.8594 8.51575 10.5 8.51575ZM16.3125 6.59387C16.0781 5.93762 15.5625 5.422 14.9062 5.18762C13.9219 4.76575 11.5781 4.8595 10.5 4.8595C9.375 4.8595 7.03125 4.76575 6.04688 5.18762C5.39062 5.422 4.875 5.93762 4.64062 6.59387C4.26562 7.57825 4.3125 9.922 4.3125 11.0001C4.3125 12.1251 4.26562 14.4689 4.64062 15.4532C4.875 16.1095 5.39062 16.6251 6.04688 16.8595C7.03125 17.2814 9.375 17.1876 10.5 17.1876C11.5781 17.1876 13.9219 17.2814 14.9062 16.8595C15.5625 16.6251 16.0781 16.1095 16.3125 15.4532C16.7344 14.4689 16.6406 12.1251 16.6406 11.0001C16.6406 9.922 16.7344 7.57825 16.3125 6.59387ZM10.5 14.8439C8.34375 14.8439 6.65625 13.1564 6.65625 11.0001C6.65625 8.89075 8.34375 7.15637 10.5 7.15637C12.6094 7.15637 14.3438 8.89075 14.3438 11.0001V11.047C14.3438 13.1564 12.6094 14.8907 10.5 14.8907V14.8439ZM14.4844 7.90637C13.9688 7.90637 13.5938 7.53137 13.5938 7.01575C13.5938 6.50012 13.9688 6.12512 14.4844 6.12512C14.9531 6.12512 15.375 6.50012 15.375 7.01575C15.375 7.53137 14.9531 7.90637 14.4844 7.90637ZM18.75 0.500122H2.25C0.984375 0.500122 0 1.53137 0 2.75012V19.2501C0 20.5157 0.984375 21.5001 2.25 21.5001H18.75C19.9688 21.5001 21 20.5157 21 19.2501V2.75012C21 1.53137 19.9688 0.500122 18.75 0.500122ZM17.9062 14.0939C17.8594 15.3126 17.5781 16.3907 16.7344 17.2345C15.8438 18.1251 14.7656 18.4064 13.5938 18.4532C12.3281 18.547 8.625 18.547 7.40625 18.4532C6.1875 18.4064 5.10938 18.1251 4.26562 17.2345C3.375 16.3907 3.09375 15.3126 3.04688 14.0939C2.95312 12.8751 2.95312 9.172 3.04688 7.90637C3.09375 6.7345 3.375 5.65637 4.26562 4.76575C5.10938 3.922 6.1875 3.64075 7.40625 3.59387C8.625 3.50012 12.3281 3.50012 13.5938 3.59387C14.7656 3.64075 15.8438 3.922 16.7344 4.81262C17.5781 5.65637 17.8594 6.7345 17.9062 7.95325C18 9.172 18 12.8751 17.9062 14.0939Z" fill="black"/>
</svg>
