<svg width="21" height="22" viewBox="0 0 21 22" fill="none" xmlns="http://www.w3.org/2000/svg">
<path d="M19.5 0.500122H1.45312C0.65625 0.500122 0 1.20325 0 2.047V20.0001C0 20.8439 0.65625 21.5001 1.45312 21.5001H19.5C20.2969 21.5001 21 20.8439 21 20.0001V2.047C21 1.20325 20.2969 0.500122 19.5 0.500122ZM6.32812 18.5001H3.23438V8.51575H6.32812V18.5001ZM4.78125 7.1095C3.75 7.1095 2.95312 6.31262 2.95312 5.32825C2.95312 4.34387 3.75 3.50012 4.78125 3.50012C5.76562 3.50012 6.5625 4.34387 6.5625 5.32825C6.5625 6.31262 5.76562 7.1095 4.78125 7.1095ZM18 18.5001H14.8594V13.6251C14.8594 12.5001 14.8594 11.0001 13.2656 11.0001C11.625 11.0001 11.3906 12.2657 11.3906 13.5782V18.5001H8.29688V8.51575H11.25V9.87512H11.2969C11.7188 9.07825 12.75 8.2345 14.25 8.2345C17.3906 8.2345 18 10.3439 18 13.0157V18.5001Z" fill="black"/>
</svg>
