<svg width="203" height="50" viewBox="0 0 203 50" fill="none" xmlns="http://www.w3.org/2000/svg">
<path d="M80.4219 3.78125L84.5312 18.9219L85.2344 22.1562H85.5469L86.2344 18.9219L90.2969 2.10938H93.8125L87.5156 25H82.9219L79.0469 11.375L78.2188 7.5625H77.9062L77.0938 11.375L73.2031 25H68.6094L62.25 2.10938H66.3438L70.4375 18.9219L71.0625 22.1562H71.3594L72.0938 18.9219L76.1875 3.78125H80.4219Z" fill="#1A1A1A"/>
<path d="M98.3125 25V2.10938H112.234L111.719 4.85938H102.188V11.7656H110.625L110.125 14.4375H102.188V22.25H112.453L111.938 25H98.3125Z" fill="#1A1A1A"/>
<path d="M128.938 12.3438C129.562 12.5208 130.161 12.7656 130.734 13.0781C131.307 13.3906 131.812 13.7708 132.25 14.2188C132.698 14.6667 133.052 15.1823 133.312 15.7656C133.583 16.3385 133.719 16.9792 133.719 17.6875C133.719 18.5312 133.51 19.3854 133.094 20.25C132.688 21.1146 132.083 21.901 131.281 22.6094C130.479 23.3073 129.484 23.8802 128.297 24.3281C127.109 24.776 125.74 25 124.188 25H117.688V2.10938H124.828C126.141 2.10938 127.286 2.25 128.266 2.53125C129.245 2.8125 130.062 3.18229 130.719 3.64062C131.375 4.09896 131.865 4.63021 132.188 5.23438C132.521 5.83854 132.688 6.45833 132.688 7.09375C132.688 7.63542 132.583 8.15625 132.375 8.65625C132.167 9.14583 131.891 9.61458 131.547 10.0625C131.203 10.5 130.802 10.9115 130.344 11.2969C129.896 11.6823 129.427 12.0312 128.938 12.3438ZM121.562 22.25H124.562C125.49 22.25 126.276 22.1302 126.922 21.8906C127.578 21.6406 128.109 21.3229 128.516 20.9375C128.922 20.5417 129.214 20.099 129.391 19.6094C129.578 19.1094 129.672 18.6042 129.672 18.0938C129.672 17.4583 129.547 16.9115 129.297 16.4531C129.047 15.9948 128.693 15.6198 128.234 15.3281C127.776 15.026 127.229 14.8021 126.594 14.6562C125.958 14.5104 125.255 14.4375 124.484 14.4375H121.562V22.25ZM126.656 11.7656C127.312 11.3073 127.839 10.7708 128.234 10.1562C128.641 9.54167 128.844 8.85938 128.844 8.10938C128.844 7.10938 128.448 6.31771 127.656 5.73438C126.875 5.15104 125.76 4.85938 124.312 4.85938H121.562V11.7656H126.656Z" fill="#1A1A1A"/>
<path d="M138.75 2.10938H146.891C148.901 2.10938 150.672 2.38021 152.203 2.92188C153.734 3.46354 155.016 4.21354 156.047 5.17188C157.078 6.11979 157.854 7.24479 158.375 8.54688C158.906 9.84896 159.172 11.2604 159.172 12.7812C159.172 13.7396 159.062 14.7083 158.844 15.6875C158.635 16.6667 158.307 17.6094 157.859 18.5156C157.411 19.4115 156.844 20.2552 156.156 21.0469C155.469 21.8385 154.646 22.5312 153.688 23.125C152.74 23.7083 151.651 24.1667 150.422 24.5C149.203 24.8333 147.839 25 146.328 25H138.75V2.10938ZM142.625 22.25H146.906C148.302 22.25 149.516 22.0208 150.547 21.5625C151.578 21.0938 152.432 20.4635 153.109 19.6719C153.786 18.8698 154.292 17.9323 154.625 16.8594C154.958 15.776 155.125 14.6146 155.125 13.375C155.125 12.0208 154.932 10.8177 154.547 9.76562C154.161 8.71354 153.594 7.82292 152.844 7.09375C152.104 6.36458 151.193 5.8125 150.109 5.4375C149.026 5.05208 147.792 4.85938 146.406 4.85938H142.625V22.25Z" fill="#1A1A1A"/>
<path d="M164.531 25V2.10938H178.453L177.938 4.85938H168.406V11.7656H176.844L176.344 14.4375H168.406V22.25H178.672L178.156 25H164.531Z" fill="#1A1A1A"/>
<path d="M198.844 2.10938H202.484L194.266 25H189.906L181.703 2.10938H185.906L191.359 18.9219L192.234 22.1562H192.531L193.391 18.9219L198.844 2.10938Z" fill="#1A1A1A"/>
<path d="M74.5664 37.377C74.5664 38.8945 74.0469 40.0635 73.0078 40.8838C71.9756 41.6973 70.4956 42.104 68.5679 42.104H66.8042V48H65.061V33.0088H68.9473C72.6934 33.0088 74.5664 34.4648 74.5664 37.377ZM66.8042 40.6069H68.373C69.918 40.6069 71.0356 40.3574 71.7261 39.8584C72.4165 39.3594 72.7617 38.5596 72.7617 37.459C72.7617 36.4678 72.437 35.7295 71.7876 35.2441C71.1382 34.7588 70.1265 34.5161 68.7524 34.5161H66.8042V40.6069Z" fill="#1A1A1A"/>
<path d="M77.7144 48V33.0088H79.4575V46.4209H86.0713V48H77.7144Z" fill="#1A1A1A"/>
<path d="M98.0479 48L96.1816 43.2319H90.1729L88.3271 48H86.5635L92.4902 32.9473H93.9565L99.8525 48H98.0479ZM95.6382 41.6631L93.895 37.0181C93.6694 36.4302 93.437 35.709 93.1978 34.8545C93.0474 35.5107 92.832 36.2319 92.5518 37.0181L90.7881 41.6631H95.6382Z" fill="#1A1A1A"/>
<path d="M105.728 40.5044L109.727 33.0088H111.614L106.61 42.186V48H104.846V42.2681L99.8525 33.0088H101.76L105.728 40.5044Z" fill="#1A1A1A"/>
<path d="M120.278 40.1455H125.375V47.436C124.582 47.689 123.775 47.8804 122.955 48.0103C122.134 48.1401 121.184 48.2051 120.104 48.2051C117.834 48.2051 116.067 47.5317 114.803 46.1851C113.538 44.8315 112.906 42.938 112.906 40.5044C112.906 38.9458 113.217 37.582 113.839 36.4131C114.468 35.2373 115.37 34.3418 116.546 33.7266C117.722 33.1045 119.099 32.7935 120.678 32.7935C122.278 32.7935 123.768 33.0874 125.149 33.6753L124.472 35.2134C123.119 34.6392 121.816 34.3521 120.565 34.3521C118.74 34.3521 117.315 34.8955 116.29 35.9824C115.264 37.0693 114.751 38.5767 114.751 40.5044C114.751 42.5278 115.244 44.0625 116.228 45.1084C117.219 46.1543 118.672 46.6772 120.586 46.6772C121.625 46.6772 122.64 46.5576 123.631 46.3184V41.7041H120.278V40.1455Z" fill="#1A1A1A"/>
<path d="M130.727 41.7656V48H128.984V33.0088H133.096C134.935 33.0088 136.292 33.3608 137.167 34.0649C138.048 34.769 138.489 35.8286 138.489 37.2437C138.489 39.2261 137.484 40.5659 135.475 41.2632L139.545 48H137.484L133.854 41.7656H130.727ZM130.727 40.2686H133.116C134.347 40.2686 135.249 40.0259 135.823 39.5405C136.397 39.0483 136.685 38.3135 136.685 37.3359C136.685 36.3447 136.391 35.6304 135.803 35.1929C135.222 34.7554 134.285 34.5366 132.993 34.5366H130.727V40.2686Z" fill="#1A1A1A"/>
<path d="M154.978 40.4839C154.978 42.8833 154.369 44.77 153.152 46.144C151.942 47.5181 150.257 48.2051 148.097 48.2051C145.889 48.2051 144.184 47.5317 142.98 46.1851C141.784 44.8315 141.186 42.9243 141.186 40.4634C141.186 38.0229 141.788 36.1328 142.991 34.793C144.194 33.4463 145.903 32.7729 148.118 32.7729C150.271 32.7729 151.953 33.4565 153.163 34.8237C154.373 36.1909 154.978 38.0776 154.978 40.4839ZM143.032 40.4839C143.032 42.5142 143.462 44.0557 144.324 45.1084C145.192 46.1543 146.45 46.6772 148.097 46.6772C149.758 46.6772 151.013 46.1543 151.86 45.1084C152.708 44.0625 153.132 42.521 153.132 40.4839C153.132 38.4673 152.708 36.9395 151.86 35.9004C151.02 34.8545 149.772 34.3315 148.118 34.3315C146.457 34.3315 145.192 34.8579 144.324 35.9106C143.462 36.9565 143.032 38.481 143.032 40.4839Z" fill="#1A1A1A"/>
<path d="M169.651 33.0088V42.709C169.651 44.418 169.135 45.7612 168.103 46.7388C167.07 47.7163 165.652 48.2051 163.847 48.2051C162.042 48.2051 160.645 47.7129 159.653 46.7285C158.669 45.7441 158.177 44.3906 158.177 42.668V33.0088H159.92V42.791C159.92 44.042 160.262 45.0024 160.945 45.6724C161.629 46.3423 162.634 46.6772 163.96 46.6772C165.225 46.6772 166.199 46.3423 166.882 45.6724C167.566 44.9956 167.908 44.0283 167.908 42.7705V33.0088H169.651Z" fill="#1A1A1A"/>
<path d="M185.339 48H183.35L175.157 35.4185H175.075C175.185 36.895 175.239 38.2485 175.239 39.479V48H173.629V33.0088H175.598L183.771 45.5391H183.853C183.839 45.3545 183.808 44.7632 183.76 43.7651C183.712 42.7603 183.695 42.0425 183.709 41.6118V33.0088H185.339V48Z" fill="#1A1A1A"/>
<path d="M201.428 40.3608C201.428 42.8354 200.754 44.729 199.408 46.0415C198.068 47.3472 196.137 48 193.614 48H189.461V33.0088H194.055C196.386 33.0088 198.198 33.6548 199.49 34.9468C200.782 36.2388 201.428 38.0435 201.428 40.3608ZM199.582 40.4224C199.582 38.4673 199.09 36.9941 198.105 36.0029C197.128 35.0117 195.672 34.5161 193.737 34.5161H191.205V46.4927H193.327C195.405 46.4927 196.967 45.9834 198.013 44.9648C199.059 43.9395 199.582 42.4253 199.582 40.4224Z" fill="#1A1A1A"/>
<path d="M35 50C26.8033 50 22.541 5.94059 11.8853 5.94059C1.22952 5.94059 0 50 0 50L1.26965e-05 0H14.5C24.7459 0 32.3771 43.5644 38.1148 43.5644C43.8525 43.5644 50 0 50 0V50H35Z" fill="#1A1A1A"/>
</svg>
