<svg width="21" height="22" viewBox="0 0 21 22" fill="none" xmlns="http://www.w3.org/2000/svg">
<path d="M18.75 0.500122H2.25C0.984375 0.500122 0 1.53137 0 2.75012V19.2501C0 20.5157 0.984375 21.5001 2.25 21.5001H18.75C19.9688 21.5001 21 20.5157 21 19.2501V2.75012C21 1.53137 19.9688 0.500122 18.75 0.500122ZM16.4531 7.95325C16.4531 8.09387 16.4531 8.2345 16.4531 8.37512C16.4531 12.4064 13.3594 17.0939 7.6875 17.0939C5.95312 17.0939 4.35938 16.6251 3 15.7345C3.23438 15.7814 3.46875 15.7814 3.70312 15.7814C5.15625 15.7814 6.46875 15.2657 7.54688 14.4689C6.1875 14.422 5.0625 13.5314 4.64062 12.3126C5.15625 12.4064 5.57812 12.4064 6.04688 12.2657C4.64062 11.9845 3.60938 10.7657 3.60938 9.26575V9.21887C3.98438 9.45325 4.45312 9.59387 4.96875 9.59387C4.125 9.03137 3.60938 8.09387 3.60938 7.06262C3.60938 6.45325 3.75 5.93762 4.03125 5.46887C5.53125 7.34387 7.82812 8.56262 10.3594 8.70325C9.9375 6.64075 11.4844 4.90637 13.3594 4.90637C14.25 4.90637 15.0469 5.28137 15.6094 5.89075C16.3125 5.75012 16.9688 5.51575 17.5781 5.14075C17.3438 5.89075 16.8281 6.45325 16.2188 6.82825C16.8281 6.78137 17.4375 6.59387 18 6.3595C17.5781 6.96887 17.0156 7.53137 16.4531 7.95325Z" fill="black"/>
</svg>
